<svg xmlns="http://www.w3.org/2000/svg" width="1600" height="940" viewBox="0 0 1600 940">
<rect width="1600" height="940" fill="#181513"/>
<text x="40" y="52" font-family="'Helvetica Neue',Helvetica,Arial,sans-serif" font-weight="700"><tspan font-size="32" fill="#FF9A3C">02</tspan><tspan font-size="22" fill="#FFFFFF">  円周に並べる</tspan></text>
<text x="40" y="84" font-family="'Hiragino Kaku Gothic ProN','Yu Gothic','Meiryo',sans-serif" font-size="17" fill="#8A8076">J字カーブを複製して、円の上に外向きで立てる。</text>
<line x1="40" y1="102" x2="1560" y2="102" stroke="#4A423B" stroke-width="1.5"/>
<g>
<rect x="60" y="150" width="250" height="142" rx="8" fill="#2C2724" stroke="#4A423B" stroke-width="1.5"/>
<path d="M60 190 L60 158 Q60 150 68 150 L302 150 Q310 150 310 190 Z" fill="#8C3D50"/>
<text x="76" y="177" font-family="'Helvetica Neue',Helvetica,Arial,sans-serif" font-size="19" font-weight="700" fill="#FFFFFF">オブジェクト情報</text>
<circle cx="310" cy="207" r="7" fill="#00D6A3" stroke="#181513" stroke-width="2"/>
<text x="296" y="212" text-anchor="end" font-family="'Helvetica Neue',Helvetica,Arial,sans-serif" font-size="15" fill="#BCB2A4">ジオメトリ</text>
<rect x="70" y="228" width="230" height="22" rx="4" fill="#3A3430"/>
<text x="80" y="244" font-family="'Helvetica Neue',Helvetica,Arial,sans-serif" font-size="14" fill="#E4DACB">J_Rail</text>
<rect x="70" y="256" width="230" height="22" rx="4" fill="#3A3430"/>
<text x="80" y="272" font-family="'Helvetica Neue',Helvetica,Arial,sans-serif" font-size="14" fill="#E4DACB">オリジナル</text>
</g>
<g>
<rect x="390" y="150" width="250" height="114" rx="8" fill="#2C2724" stroke="#4A423B" stroke-width="1.5"/>
<path d="M390 190 L390 158 Q390 150 398 150 L632 150 Q640 150 640 190 Z" fill="#2F6B55"/>
<text x="406" y="177" font-family="'Helvetica Neue',Helvetica,Arial,sans-serif" font-size="19" font-weight="700" fill="#FFFFFF">カーブリサンプル</text>
<circle cx="640" cy="207" r="7" fill="#00D6A3" stroke="#181513" stroke-width="2"/>
<text x="626" y="212" text-anchor="end" font-family="'Helvetica Neue',Helvetica,Arial,sans-serif" font-size="15" fill="#BCB2A4">カーブ</text>
<circle cx="390" cy="207" r="7" fill="#00D6A3" stroke="#181513" stroke-width="2"/>
<text x="404" y="212" font-family="'Helvetica Neue',Helvetica,Arial,sans-serif" font-size="15" fill="#BCB2A4">カーブ</text>
<rect x="400" y="228" width="230" height="22" rx="4" fill="#3A3430"/>
<text x="410" y="244" font-family="'Helvetica Neue',Helvetica,Arial,sans-serif" font-size="14" fill="#E4DACB">数  600</text>
</g>
<g>
<rect x="60" y="420" width="250" height="142" rx="8" fill="#2C2724" stroke="#4A423B" stroke-width="1.5"/>
<path d="M60 460 L60 428 Q60 420 68 420 L302 420 Q310 420 310 460 Z" fill="#2F6B55"/>
<text x="76" y="447" font-family="'Helvetica Neue',Helvetica,Arial,sans-serif" font-size="19" font-weight="700" fill="#FFFFFF">カーブ円</text>
<circle cx="310" cy="477" r="7" fill="#00D6A3" stroke="#181513" stroke-width="2"/>
<text x="296" y="482" text-anchor="end" font-family="'Helvetica Neue',Helvetica,Arial,sans-serif" font-size="15" fill="#BCB2A4">カーブ</text>
<rect x="70" y="498" width="230" height="22" rx="4" fill="#3A3430"/>
<text x="80" y="514" font-family="'Helvetica Neue',Helvetica,Arial,sans-serif" font-size="14" fill="#E4DACB">解像度  60</text>
<rect x="70" y="526" width="230" height="22" rx="4" fill="#3A3430"/>
<text x="80" y="542" font-family="'Helvetica Neue',Helvetica,Arial,sans-serif" font-size="14" fill="#E4DACB">半径  Radius</text>
</g>
<g>
<rect x="60" y="700" width="190" height="86" rx="8" fill="#2C2724" stroke="#4A423B" stroke-width="1.5"/>
<path d="M60 740 L60 708 Q60 700 68 700 L242 700 Q250 700 250 740 Z" fill="#8C3D50"/>
<text x="76" y="727" font-family="'Helvetica Neue',Helvetica,Arial,sans-serif" font-size="19" font-weight="700" fill="#FFFFFF">インデックス</text>
<circle cx="250" cy="757" r="7" fill="#598C5C" stroke="#181513" stroke-width="2"/>
<text x="236" y="762" text-anchor="end" font-family="'Helvetica Neue',Helvetica,Arial,sans-serif" font-size="15" fill="#BCB2A4">インデックス</text>
</g>
<g>
<rect x="300" y="700" width="230" height="148" rx="8" fill="#2C2724" stroke="#4A423B" stroke-width="1.5"/>
<path d="M300 740 L300 708 Q300 700 308 700 L522 700 Q530 700 530 740 Z" fill="#36688F"/>
<text x="316" y="727" font-family="'Helvetica Neue',Helvetica,Arial,sans-serif" font-size="19" font-weight="700" fill="#FFFFFF">演算（大きい）</text>
<circle cx="530" cy="757" r="7" fill="#CC50B0" stroke="#181513" stroke-width="2"/>
<text x="516" y="762" text-anchor="end" font-family="'Helvetica Neue',Helvetica,Arial,sans-serif" font-size="15" fill="#BCB2A4">値</text>
<circle cx="300" cy="757" r="7" fill="#A1A1A1" stroke="#181513" stroke-width="2"/>
<text x="314" y="762" font-family="'Helvetica Neue',Helvetica,Arial,sans-serif" font-size="15" fill="#BCB2A4">値</text>
<circle cx="300" cy="791" r="7" fill="#A1A1A1" stroke="#181513" stroke-width="2"/>
<text x="314" y="796" font-family="'Helvetica Neue',Helvetica,Arial,sans-serif" font-size="15" fill="#BCB2A4">値</text>
<rect x="310" y="812" width="210" height="22" rx="4" fill="#3A3430"/>
<text x="320" y="828" font-family="'Helvetica Neue',Helvetica,Arial,sans-serif" font-size="14" fill="#E4DACB">Index &gt; Count</text>
</g>
<g>
<rect x="390" y="420" width="250" height="148" rx="8" fill="#2C2724" stroke="#4A423B" stroke-width="1.5"/>
<path d="M390 460 L390 428 Q390 420 398 420 L632 420 Q640 420 640 460 Z" fill="#2F6B55"/>
<text x="406" y="447" font-family="'Helvetica Neue',Helvetica,Arial,sans-serif" font-size="19" font-weight="700" fill="#FFFFFF">ジオメトリ削除</text>
<circle cx="640" cy="477" r="7" fill="#00D6A3" stroke="#181513" stroke-width="2"/>
<text x="626" y="482" text-anchor="end" font-family="'Helvetica Neue',Helvetica,Arial,sans-serif" font-size="15" fill="#BCB2A4">ジオメトリ</text>
<circle cx="390" cy="477" r="7" fill="#00D6A3" stroke="#181513" stroke-width="2"/>
<text x="404" y="482" font-family="'Helvetica Neue',Helvetica,Arial,sans-serif" font-size="15" fill="#BCB2A4">ジオメトリ</text>
<circle cx="390" cy="511" r="7" fill="#CC50B0" stroke="#181513" stroke-width="2"/>
<text x="404" y="516" font-family="'Helvetica Neue',Helvetica,Arial,sans-serif" font-size="15" fill="#BCB2A4">選択</text>
<rect x="400" y="532" width="230" height="22" rx="4" fill="#3A3430"/>
<text x="410" y="548" font-family="'Helvetica Neue',Helvetica,Arial,sans-serif" font-size="14" fill="#E4DACB">ポイント</text>
</g>
<g>
<rect x="620" y="730" width="190" height="86" rx="8" fill="#2C2724" stroke="#4A423B" stroke-width="1.5"/>
<path d="M620 770 L620 738 Q620 730 628 730 L802 730 Q810 730 810 770 Z" fill="#8C3D50"/>
<text x="636" y="757" font-family="'Helvetica Neue',Helvetica,Arial,sans-serif" font-size="19" font-weight="700" fill="#FFFFFF">位置</text>
<circle cx="810" cy="787" r="7" fill="#6363C7" stroke="#181513" stroke-width="2"/>
<text x="796" y="792" text-anchor="end" font-family="'Helvetica Neue',Helvetica,Arial,sans-serif" font-size="15" fill="#BCB2A4">位置</text>
</g>
<g>
<rect x="880" y="700" width="280" height="142" rx="8" fill="#2C2724" stroke="#4A423B" stroke-width="1.5"/>
<path d="M880 740 L880 708 Q880 700 888 700 L1152 700 Q1160 700 1160 740 Z" fill="#4A4682"/>
<text x="896" y="727" font-family="'Helvetica Neue',Helvetica,Arial,sans-serif" font-size="19" font-weight="700" fill="#FFFFFF">回転をベクトルに整列</text>
<circle cx="1160" cy="757" r="7" fill="#C0A0D0" stroke="#181513" stroke-width="2"/>
<text x="1146" y="762" text-anchor="end" font-family="'Helvetica Neue',Helvetica,Arial,sans-serif" font-size="15" fill="#BCB2A4">回転</text>
<circle cx="880" cy="757" r="7" fill="#6363C7" stroke="#181513" stroke-width="2"/>
<text x="894" y="762" font-family="'Helvetica Neue',Helvetica,Arial,sans-serif" font-size="15" fill="#BCB2A4">ベクトル</text>
<rect x="890" y="778" width="260" height="22" rx="4" fill="#3A3430"/>
<text x="900" y="794" font-family="'Helvetica Neue',Helvetica,Arial,sans-serif" font-size="14" fill="#E4DACB">軸  X</text>
<rect x="890" y="806" width="260" height="22" rx="4" fill="#3A3430"/>
<text x="900" y="822" font-family="'Helvetica Neue',Helvetica,Arial,sans-serif" font-size="14" fill="#E4DACB">ピボット  Z</text>
</g>
<g>
<rect x="1230" y="380" width="300" height="154" rx="8" fill="#2C2724" stroke="#4A423B" stroke-width="1.5"/>
<path d="M1230 420 L1230 388 Q1230 380 1238 380 L1522 380 Q1530 380 1530 420 Z" fill="#2F6B55"/>
<text x="1246" y="407" font-family="'Helvetica Neue',Helvetica,Arial,sans-serif" font-size="19" font-weight="700" fill="#FFFFFF">ポイントインスタンス作成</text>
<circle cx="1530" cy="437" r="7" fill="#00D6A3" stroke="#181513" stroke-width="2"/>
<text x="1516" y="442" text-anchor="end" font-family="'Helvetica Neue',Helvetica,Arial,sans-serif" font-size="15" fill="#BCB2A4">インスタンス</text>
<circle cx="1230" cy="437" r="7" fill="#00D6A3" stroke="#181513" stroke-width="2"/>
<text x="1244" y="442" font-family="'Helvetica Neue',Helvetica,Arial,sans-serif" font-size="15" fill="#BCB2A4">ポイント</text>
<circle cx="1230" cy="471" r="7" fill="#00D6A3" stroke="#181513" stroke-width="2"/>
<text x="1244" y="476" font-family="'Helvetica Neue',Helvetica,Arial,sans-serif" font-size="15" fill="#BCB2A4">インスタンス</text>
<circle cx="1230" cy="505" r="7" fill="#C0A0D0" stroke="#181513" stroke-width="2"/>
<text x="1244" y="510" font-family="'Helvetica Neue',Helvetica,Arial,sans-serif" font-size="15" fill="#BCB2A4">回転</text>
</g>
<path d="M310 207 C348 207 352 207 390 207" fill="none" stroke="#00D6A3" stroke-width="2.6"/>
<path d="M640 207 C905 207 964 471 1230 471" fill="none" stroke="#00D6A3" stroke-width="2.6"/>
<path d="M310 477 C348 477 352 477 390 477" fill="none" stroke="#00D6A3" stroke-width="2.6"/>
<path d="M250 757 C288 757 262 791 300 791" fill="none" stroke="#598C5C" stroke-width="2.6"/>
<path d="M530 757 C593 757 327 511 390 511" fill="none" stroke="#CC50B0" stroke-width="2.6"/>
<path d="M640 477 C905 477 964 437 1230 437" fill="none" stroke="#00D6A3" stroke-width="2.6"/>
<path d="M810 787 C848 787 842 757 880 757" fill="none" stroke="#6363C7" stroke-width="2.6"/>
<path d="M1160 757 C1198 757 1192 505 1230 505" fill="none" stroke="#C0A0D0" stroke-width="2.6"/>
<rect x="890" y="150" width="670" height="74" rx="4" fill="#2A2015" stroke="#FF9A3C" stroke-width="1.5"/>
<rect x="890" y="150" width="4" height="74" fill="#FF9A3C"/>
<text x="908" y="178" font-family="'Hiragino Kaku Gothic ProN','Yu Gothic','Meiryo',sans-serif" font-size="16" fill="#EFE7D9">軸 = X ／ ピボット = Z。</text>
<text x="908" y="204" font-family="'Hiragino Kaku Gothic ProN','Yu Gothic','Meiryo',sans-serif" font-size="16" fill="#EFE7D9">J字のローカル +X（床の走り）が、円の外を向く。</text>
<rect x="890" y="260" width="670" height="74" rx="4" fill="#2A1C17" stroke="#FF7A5C" stroke-width="1.5"/>
<rect x="890" y="260" width="4" height="74" fill="#FF7A5C"/>
<text x="908" y="288" font-family="'Hiragino Kaku Gothic ProN','Yu Gothic','Meiryo',sans-serif" font-size="16" fill="#EFE7D9">本数を Curve Circle の解像度で決めないこと。</text>
<text x="908" y="314" font-family="'Hiragino Kaku Gothic ProN','Yu Gothic','Meiryo',sans-serif" font-size="16" fill="#EFE7D9">60本つくって Index &gt; Count で消す。冒頭の「増える」演出がこれ1本で書ける。</text>
</svg>